<?xml version="1.0" standalone="no"?>
<svg
  width="600"
  height="600"
  viewBox="0 0 600 600"
  xmlns="http://www.w3.org/2000/svg"
>
  <g transform="translate(300,300)">
    <path d="M62.3,-101.7C101.8,-71.5,169.6,-89.9,209.3,-74.6C249,-59.2,260.6,-10.1,252.8,35.5C245,81.1,217.7,123.1,184.6,158.4C151.6,193.8,112.7,222.6,73.3,221.2C33.9,219.7,-6,188.1,-28.1,154.7C-50.3,121.3,-54.6,86.2,-87.2,65.9C-119.8,45.6,-180.7,40.2,-210.6,13.5C-240.5,-13.1,-239.4,-61,-215.7,-92.6C-192,-124.2,-145.8,-139.5,-106,-169.7C-66.3,-199.9,-33.2,-244.9,-10.9,-228C11.4,-211,22.7,-132,62.3,-101.7Z" fill="#f7b6b6" />
  </g>
</svg>
  