<?xml version="1.0" standalone="no"?>
<svg viewBox="0 0 200 200" xmlns="http://www.w3.org/2000/svg">
  <path fill="#F7B6B6" d="M30.3,-56.9C40.1,-46.9,49.5,-40.4,51.3,-31.5C53.2,-22.6,47.6,-11.3,49.2,0.9C50.8,13.2,59.7,26.4,60.9,40.5C62.1,54.7,55.5,69.8,44.1,69.5C32.7,69.2,16.3,53.6,2.8,48.7C-10.7,43.8,-21.3,49.6,-27.9,47.1C-34.6,44.6,-37.2,33.8,-39.2,24.6C-41.2,15.3,-42.4,7.7,-49.5,-4C-56.5,-15.8,-69.2,-31.5,-65.5,-37.8C-61.8,-44,-41.7,-40.7,-28,-48.4C-14.4,-56.2,-7.2,-75.1,1.5,-77.8C10.3,-80.5,20.5,-66.9,30.3,-56.9Z" transform="translate(100 100)" />
</svg>
